<svg width="100" height="116" viewBox="0 0 100 116" fill="none" xmlns="http://www.w3.org/2000/svg">
<rect y="95.4711" width="100" height="20" rx="5" fill="#EBEBEB"/>
<path d="M42.25 99.9711C42.5078 99.9711 42.7422 100.182 42.7891 100.44L42.8359 100.721H52.6797C53.1719 100.721 53.5469 101.213 53.4062 101.682L52.1406 106.182C52.0469 106.51 51.7656 106.721 51.4141 106.721H43.9844L44.1953 107.846H51.4375C51.7422 107.846 52 108.104 52 108.409C52 108.737 51.7422 108.971 51.4375 108.971H43.7266C43.4688 108.971 43.2344 108.784 43.1875 108.526L41.7812 101.096H40.5625C40.2344 101.096 40 100.862 40 100.534C40 100.229 40.2344 99.9711 40.5625 99.9711H42.25ZM51.1328 105.596L52.1875 101.846H43.0703L43.7734 105.596H51.1328ZM43 110.846C43 110.237 43.4922 109.721 44.125 109.721C44.7344 109.721 45.25 110.237 45.25 110.846C45.25 111.479 44.7344 111.971 44.125 111.971C43.4922 111.971 43 111.479 43 110.846ZM52 110.846C52 111.479 51.4844 111.971 50.875 111.971C50.2422 111.971 49.75 111.479 49.75 110.846C49.75 110.237 50.2422 109.721 50.875 109.721C51.4844 109.721 52 110.237 52 110.846Z" fill="#8D8D8D"/>
<path d="M66.2031 14.268C67.2969 14.9711 68 16.2211 68 17.4711C68 18.7992 67.2969 20.0492 66.2031 20.6742L43.7031 34.4242C42.5312 35.1273 41.0469 35.2055 39.875 34.5023C38.7031 33.8773 38 32.6273 38 31.2211V3.72109C38 2.39296 38.7031 1.14296 39.875 0.517964C41.0469 -0.185161 42.5312 -0.185161 43.7031 0.596089L66.2031 14.268Z" fill="white"/>
</svg>
