<svg width="110" height="90" viewBox="0 0 110 90" fill="none" xmlns="http://www.w3.org/2000/svg">
<path d="M35.0059 52.6759L3.02367 14.6276C0.0784899 11.131 0.534786 5.91724 4.03997 2.95862C5.78219 1.48966 7.98071 0.868968 10.0963 1.05518C12.1911 1.24138 14.2444 2.23449 15.7377 3.99311L46.3718 40.4483" fill="white"/>
<path d="M46.3926 40.4276L39.7349 32.5034C36.7897 29.0069 37.246 23.7931 40.7512 20.8345C42.4934 19.3655 44.6919 18.7448 46.8074 18.931C48.9023 19.1172 50.9556 20.1103 52.4489 21.869L55.1245 25.0345L61.7823 32.9586" fill="white"/>
<path d="M61.7615 32.9586L55.1037 25.0345C52.1585 21.5379 52.6148 16.3241 56.12 13.3655C57.8622 11.8965 60.0607 11.2759 62.1763 11.4621C64.2711 11.6483 66.3244 12.6414 67.8178 14.4L70.4933 17.5655" fill="white"/>
<path d="M70.6101 17.7313C69.1376 15.9727 68.3778 13.6138 68.5645 11.5241C68.7719 9.41379 69.7467 7.36552 71.5097 5.89655C73.2519 4.42758 75.4504 3.8069 77.566 3.9931C79.6608 4.17931 81.797 5.29656 83.2903 7.05518" fill="white"/>
<path d="M83.2903 7.05518L99.3022 26.0897C112.556 41.8345 110.481 65.3379 94.677 78.5379C85.634 86.0897 73.957 89.7517 62.2177 88.7379L22.7481 85.2828C20.4666 85.0759 18.7659 83.0483 18.9733 80.7724C19.2844 77.3793 20.9437 74.4 23.3703 72.3724C25.797 70.3448 29.0326 69.2276 32.4548 69.5172L45.5422 70.6552C47.3881 70.8207 48.5081 68.669 47.3052 67.2621L32.434 49.5931" fill="white"/>
<path d="M34.2404 53.3193C34.5958 53.7421 35.2266 53.7967 35.6493 53.4414C36.0721 53.086 36.1268 52.4552 35.7714 52.0324L34.2404 53.3193ZM3.02367 14.6276L3.78917 13.9841L3.78851 13.9834L3.02367 14.6276ZM4.03997 2.95862L3.39537 2.19411L3.39496 2.19445L4.03997 2.95862ZM10.0963 1.05518L10.1848 0.0591021L10.1839 0.0590263L10.0963 1.05518ZM15.7377 3.99311L16.5033 3.34976L16.5 3.34583L15.7377 3.99311ZM45.6062 41.0916C45.9615 41.5144 46.5923 41.5692 47.0152 41.2139C47.438 40.8586 47.4927 40.2278 47.1374 39.8049L45.6062 41.0916ZM45.627 41.0709C45.9823 41.4937 46.6131 41.5485 47.0359 41.1932C47.4588 40.8379 47.5135 40.2072 47.1583 39.7843L45.627 41.0709ZM39.7349 32.5034L40.5005 31.8602L40.4997 31.8592L39.7349 32.5034ZM40.7512 20.8345L40.1065 20.07L40.1061 20.0703L40.7512 20.8345ZM46.8074 18.931L46.896 17.935L46.8951 17.9349L46.8074 18.931ZM52.4489 21.869L53.2127 21.2234L53.2112 21.2217L52.4489 21.869ZM55.1245 25.0345L55.8901 24.3912L55.8882 24.389L55.1245 25.0345ZM61.0166 33.6019C61.3719 34.0247 62.0027 34.0795 62.4255 33.7243C62.8484 33.369 62.9032 32.7382 62.5479 32.3153L61.0166 33.6019ZM60.9958 33.6019C61.3511 34.0247 61.9819 34.0795 62.4047 33.7243C62.8276 33.369 62.8824 32.7382 62.5271 32.3153L60.9958 33.6019ZM55.1037 25.0345L55.8693 24.3912L55.8685 24.3903L55.1037 25.0345ZM56.12 13.3655L55.4754 12.601L55.475 12.6013L56.12 13.3655ZM62.1763 11.4621L62.2648 10.466L62.264 10.4659L62.1763 11.4621ZM67.8178 14.4L68.5815 13.7545L68.58 13.7527L67.8178 14.4ZM69.7296 18.211C70.0861 18.6328 70.7171 18.6858 71.1389 18.3293C71.5607 17.9727 71.6136 17.3418 71.2571 16.92L69.7296 18.211ZM69.8434 18.3733C70.198 18.7967 70.8287 18.8525 71.2521 18.498C71.6756 18.1434 71.7314 17.5127 71.3768 17.0893L69.8434 18.3733ZM68.5645 11.5241L67.5692 11.4263L67.5684 11.4352L68.5645 11.5241ZM71.5097 5.89655L72.1498 6.66482L72.1543 6.66107L71.5097 5.89655ZM77.566 3.9931L77.6545 2.99703L77.6536 2.99695L77.566 3.9931ZM83.2903 7.05518L84.0556 6.41144L84.0526 6.4079L83.2903 7.05518ZM75.0591 24.5617C75.415 24.984 76.0459 25.0378 76.4682 24.6819C76.8905 24.326 76.9443 23.6951 76.5884 23.2728L75.0591 24.5617ZM69.9098 15.3487C69.5539 14.9264 68.9231 14.8725 68.5008 15.2285C68.0785 15.5844 68.0246 16.2152 68.3806 16.6376L69.9098 15.3487ZM99.3022 26.0897L98.5369 26.7334L98.5372 26.7336L99.3022 26.0897ZM94.677 78.5379L95.318 79.3055L95.318 79.3054L94.677 78.5379ZM62.2177 88.7379L62.1305 89.7341L62.1317 89.7342L62.2177 88.7379ZM22.7481 85.2828L22.6578 86.2787L22.6609 86.279L22.7481 85.2828ZM18.9733 80.7724L17.9775 80.6811L17.9774 80.6817L18.9733 80.7724ZM32.4548 69.5172L32.5414 68.521L32.5391 68.5208L32.4548 69.5172ZM45.5422 70.6552L45.6315 69.6592L45.6288 69.6589L45.5422 70.6552ZM47.3052 67.2621L46.5401 67.906L46.5451 67.9119L47.3052 67.2621ZM33.1991 48.9492C32.8435 48.5266 32.2127 48.4724 31.7901 48.828C31.3676 49.1837 31.3133 49.8145 31.669 50.237L33.1991 48.9492ZM3.78851 13.9834C1.20145 10.912 1.59846 6.32804 4.68498 3.72279L3.39496 2.19445C-0.528885 5.50645 -1.04447 11.3501 2.25884 15.2718L3.78851 13.9834ZM4.68458 3.72314C6.21278 2.43462 8.14425 1.88723 10.0086 2.05132L10.1839 0.0590263C7.81718 -0.149292 5.3516 0.544694 3.39537 2.19411L4.68458 3.72314ZM10.0077 2.05125C11.8487 2.21489 13.6572 3.08792 14.9755 4.64038L16.5 3.34583C14.8316 1.38105 12.5335 0.267873 10.1848 0.0591025L10.0077 2.05125ZM47.1583 39.7843L40.5005 31.8602L38.9692 33.1467L45.627 41.0709L47.1583 39.7843ZM40.4997 31.8592C37.9126 28.7878 38.3096 24.2039 41.3962 21.5986L40.1061 20.0703C36.1823 23.3823 35.6667 29.2259 38.97 33.1477L40.4997 31.8592ZM41.3958 21.599C42.924 20.3105 44.8554 19.7631 46.7198 19.9272L46.8951 17.9349C44.5284 17.7266 42.0628 18.4205 40.1065 20.07L41.3958 21.599ZM46.7189 19.9271C48.5599 20.0907 50.3684 20.9638 51.6867 22.5162L53.2112 21.2217C51.5428 19.2569 49.2446 18.1437 46.896 17.935L46.7189 19.9271ZM51.6852 22.5145L54.3607 25.68L55.8882 24.389L53.2127 21.2234L51.6852 22.5145ZM54.3589 25.6778L61.0166 33.6019L62.5479 32.3153L55.8901 24.3912L54.3589 25.6778ZM62.5271 32.3153L55.8693 24.3912L54.3381 25.6778L60.9958 33.6019L62.5271 32.3153ZM55.8685 24.3903C53.2815 21.3189 53.6785 16.7349 56.765 14.1297L55.475 12.6013C51.5511 15.9133 51.0355 21.757 54.3389 25.6787L55.8685 24.3903ZM56.7646 14.13C58.2928 12.8415 60.2243 12.2941 62.0886 12.4582L62.264 10.4659C59.8972 10.2576 57.4316 10.9516 55.4754 12.601L56.7646 14.13ZM62.0877 12.4581C63.9287 12.6218 65.7372 13.4948 67.0555 15.0473L68.58 13.7527C66.9116 11.7879 64.6135 10.6748 62.2648 10.466L62.0877 12.4581ZM67.054 15.0455L69.7296 18.211L71.2571 16.92L68.5815 13.7545L67.054 15.0455ZM71.3768 17.0893C70.063 15.5202 69.399 13.4206 69.5605 11.6131L67.5684 11.4352C67.3566 13.8069 68.2122 16.4251 69.8434 18.3733L71.3768 17.0893ZM69.5597 11.6219C69.7435 9.75133 70.6048 7.95213 72.1498 6.66481L70.8695 5.12829C68.8886 6.7789 67.8002 9.07626 67.5693 11.4263L69.5597 11.6219ZM72.1543 6.66107C73.6825 5.37255 75.6139 4.82516 77.4783 4.98925L77.6536 2.99695C75.2869 2.78864 72.8213 3.48262 70.865 5.13203L72.1543 6.66107ZM77.4774 4.98917C79.2951 5.15074 81.1944 6.1319 82.5281 7.70245L84.0526 6.4079C82.3996 4.46122 80.0265 3.20787 77.6545 2.99703L77.4774 4.98917ZM76.5884 23.2728L69.9098 15.3487L68.3806 16.6376L75.0591 24.5617L76.5884 23.2728ZM82.5251 7.69891L98.5369 26.7334L100.067 25.4459L84.0556 6.41144L82.5251 7.69891ZM98.5372 26.7336C111.433 42.0543 109.416 64.925 94.036 77.7704L95.318 79.3054C111.547 65.7509 113.678 41.6147 100.067 25.4457L98.5372 26.7336ZM94.036 77.7704C85.1963 85.1524 73.7807 88.7328 62.3038 87.7416L62.1317 89.7342C74.1333 90.7707 86.0718 87.0269 95.318 79.3055L94.036 77.7704ZM62.305 87.7417L22.8353 84.2866L22.6609 86.279L62.1305 89.7341L62.305 87.7417ZM22.8384 84.2868C21.1025 84.1294 19.8123 82.5842 19.9692 80.8632L17.9774 80.6817C17.7195 83.5123 19.8307 86.0223 22.6578 86.2787L22.8384 84.2868ZM19.9691 80.8637C20.2553 77.7426 21.7811 75.0034 24.0115 73.1398L22.7292 71.605C20.1062 73.7966 18.3135 77.0161 17.9775 80.6811L19.9691 80.8637ZM24.0115 73.1398C26.2428 71.2755 29.2195 70.247 32.3704 70.5137L32.5391 68.5208C28.8456 68.2082 25.3512 69.4142 22.7292 71.605L24.0115 73.1398ZM32.3682 70.5135L45.4556 71.6514L45.6288 69.6589L32.5414 68.521L32.3682 70.5135ZM45.4529 71.6512C48.1809 71.8958 49.8578 68.7086 48.0652 66.6122L46.5451 67.9119C47.1585 68.6293 46.5954 69.7456 45.6315 69.6592L45.4529 71.6512ZM48.0702 66.6181L33.1991 48.9492L31.669 50.237L46.5401 67.906L48.0702 66.6181ZM35.7714 52.0324L3.78916 13.9841L2.25818 15.271L34.2404 53.3193L35.7714 52.0324ZM14.9722 4.63644L45.6062 41.0916L47.1374 39.8049L16.5033 3.34977L14.9722 4.63644Z" fill="#231F20"/>
</svg>
